<svg xmlns="http://www.w3.org/2000/svg" width="198" height="172" viewBox="0 0 198 172" fill="none">
  <path d="M42.582 129.138C42.6488 134.832 43.8424 140.458 46.0948 145.694C48.3472 150.93 51.6142 155.673 55.7094 159.653C59.8045 163.633 64.6476 166.771 69.9621 168.889C75.2766 171.007 80.9583 172.063 86.683 171.997C92.4078 171.93 98.0633 170.743 103.327 168.503C108.59 166.262 113.358 163.012 117.359 158.938C121.36 154.865 124.515 150.047 126.644 144.76C128.773 139.474 129.835 133.822 129.768 128.127L127.844 128.149C127.907 133.592 126.893 138.995 124.858 144.048C122.822 149.102 119.807 153.707 115.982 157.6C112.158 161.494 107.601 164.601 102.57 166.742C97.5385 168.884 92.1326 170.019 86.6606 170.083C81.1886 170.146 75.7577 169.137 70.6778 167.112C65.5979 165.088 60.9686 162.088 57.0543 158.284C53.1399 154.479 50.0171 149.946 47.8641 144.941C45.7111 139.936 44.5702 134.559 44.5064 129.115L42.582 129.138Z" fill="url(#paint0_linear_1229_5161)"/>
  <path d="M128.854 129.411L128.7 77.6422C128.688 73.7958 126.214 70.3837 122.549 69.1585L52.5944 45.7754C48.0386 44.2526 43.3275 47.6321 43.3418 52.4128L43.5715 129.163" stroke="url(#paint1_linear_1229_5161)" stroke-width="2"/>
  <path d="M82.582 115.138C82.6488 120.832 83.8424 126.458 86.0948 131.694C88.3472 136.93 91.6142 141.673 95.7094 145.653C99.8045 149.633 104.648 152.771 109.962 154.889C115.277 157.007 120.958 158.063 126.683 157.997C132.408 157.93 138.063 156.743 143.327 154.503C148.59 152.262 153.358 149.012 157.359 144.938C161.36 140.865 164.515 136.047 166.644 130.76C168.773 125.474 169.835 119.822 169.768 114.127L167.844 114.149C167.907 119.592 166.893 124.995 164.858 130.048C162.822 135.102 159.807 139.707 155.982 143.6C152.158 147.494 147.601 150.601 142.57 152.742C137.538 154.884 132.133 156.019 126.661 156.083C121.189 156.146 115.758 155.137 110.678 153.112C105.598 151.088 100.969 148.088 97.0543 144.284C93.1399 140.479 90.0171 135.946 87.8641 130.941C85.7111 125.936 84.5702 120.559 84.5064 115.115L82.582 115.138Z" fill="url(#paint2_linear_1229_5161)"/>
  <path d="M168.854 115.411L168.7 63.6422C168.688 59.7958 166.214 56.3837 162.549 55.1585L92.5944 31.7754C88.0386 30.2526 83.3275 33.6321 83.3418 38.4128L83.5715 115.163" stroke="url(#paint3_linear_1229_5161)" stroke-width="2"/>
  <defs>
    <linearGradient id="paint0_linear_1229_5161" x1="42.0917" y1="125.659" x2="128.279" y2="129.689" gradientUnits="userSpaceOnUse">
      <stop stop-color="#0093FF"/>
      <stop offset="1" stop-color="#0093FF" stop-opacity="0"/>
    </linearGradient>
    <linearGradient id="paint1_linear_1229_5161" x1="41.0915" y1="116.188" x2="128.751" y2="133.309" gradientUnits="userSpaceOnUse">
      <stop stop-color="#0093FF"/>
      <stop offset="1" stop-color="#0093FF" stop-opacity="0"/>
    </linearGradient>
    <linearGradient id="paint2_linear_1229_5161" x1="82.0917" y1="111.659" x2="168.279" y2="115.689" gradientUnits="userSpaceOnUse">
      <stop stop-color="#0093FF"/>
      <stop offset="1" stop-color="#0093FF" stop-opacity="0"/>
    </linearGradient>
    <linearGradient id="paint3_linear_1229_5161" x1="81.0915" y1="102.188" x2="168.751" y2="119.309" gradientUnits="userSpaceOnUse">
      <stop stop-color="#0093FF"/>
      <stop offset="1" stop-color="#0093FF" stop-opacity="0"/>
    </linearGradient>
  </defs>
</svg>